/* XPM */
static char * bottom_left_active_xpm[] = {
"16 16 3 1",
"       c None",
".      c #FFFFFF s active_color_2",
"x		c #000000 s active_color_1",
"        .......x"};
"        .......x"};
"        .......x"};
"        .......x"};
"        .......x"};
"        .......x"};
"        .......x"};
"        .......x"};
"...............x"};
"...............x"};
"...............x"};
"...............x"};
"...............x"};
"...............x"};
"...............x"};
"xxxxxxxxxxxxxxxx"};
